<svg width="64" height="64" viewBox="0 0 64 64" fill="none" xmlns="http://www.w3.org/2000/svg">
    <defs>
        <linearGradient id="bulbGradient" x1="10" y1="10" x2="54" y2="54" gradientUnits="userSpaceOnUse">
            <stop offset="0%" stop-color="#22d3ee" /> <!-- cyan-400 -->
            <stop offset="50%" stop-color="#3b82f6" /> <!-- blue-500 -->
            <stop offset="100%" stop-color="#a855f7" /> <!-- purple-500 -->
        </linearGradient>
        <filter id="glow" x="-20%" y="-20%" width="140%" height="140%">
            <feGaussianBlur stdDeviation="3" result="blur" />
            <feComposite in="SourceGraphic" in2="blur" operator="over" />
        </filter>
    </defs>
    <!-- Glow effect behind the bulb -->
    <path d="M32 4C20.954 4 12 12.954 12 24c0 6.64 3.25 12.56 8.32 16.27.76.56 1.68 1.73 1.68 2.73v5c0 1.65 1.35 3 3 3h14c1.65 0 3-1.35 3-3v-5c0-1 .92-2.17 1.68-2.73C48.75 36.56 52 30.64 52 24c0-11.046-8.954-20-20-20z" fill="url(#bulbGradient)" opacity="0.4" filter="url(#glow)" />
    
    <!-- Bulb Body -->
    <path d="M32 6C22.059 6 14 14.059 14 24c0 5.86 2.84 11.23 7.54 14.7.75.56 1.46 1.3 1.46 2.3v6c0 1.1.9 2 2 2h14c1.1 0 2-.9 2-2v-6c0-1 .71-1.74 1.46-2.3C47.16 35.23 50 29.86 50 24c0-9.941-8.059-18-18-18z" fill="url(#bulbGradient)" stroke="white" stroke-width="1.5" stroke-opacity="0.3" />
    
    <!-- Filament (Stylized as a circuit/brain connection) -->
    <path d="M28 16c0 0-2 4 4 4s4-4 4-4" stroke="white" stroke-width="2" stroke-linecap="round" stroke-opacity="0.9" />
    <path d="M32 20v8" stroke="white" stroke-width="2" stroke-linecap="round" stroke-opacity="0.9" />
    <path d="M26 28h12" stroke="white" stroke-width="2" stroke-linecap="round" stroke-opacity="0.9" />
    
    <!-- Base Threads -->
    <path d="M26 52h12" stroke="#e2e8f0" stroke-width="2" stroke-linecap="round" />
    <path d="M26 56h12" stroke="#e2e8f0" stroke-width="2" stroke-linecap="round" />
    
    <!-- Bottom Contact -->
    <path d="M29 60h6c0 1.1-.9 2-2 2h-2c-1.1 0-2-.9-2-2z" fill="#94a3b8" />
    
    <!-- Shine reflection -->
    <path d="M38 10c3 2 5 6 5 10" stroke="white" stroke-width="2" stroke-linecap="round" stroke-opacity="0.3" />
</svg>
